<svg width="1080" height="1080" viewBox="0 0 1080 1080" fill="none" xmlns="http://www.w3.org/2000/svg">
<g clip-path="url(#clip0_6_11)">
<rect width="1080" height="1080" fill="black"/>
<path d="M163.27 648V522.2L180.27 538.6H137.27V508H202.87V648H163.27ZM244.525 648L340.125 508H368.925L273.325 648H244.525ZM257.325 583.8C250.525 583.8 244.392 582.267 238.925 579.2C233.458 576.133 229.192 571.733 226.125 566C223.058 560.133 221.525 553.133 221.525 545C221.525 536.867 223.058 529.933 226.125 524.2C229.192 518.467 233.458 514.067 238.925 511C244.392 507.8 250.525 506.2 257.325 506.2C264.258 506.2 270.392 507.8 275.725 511C281.192 514.067 285.458 518.467 288.525 524.2C291.725 529.933 293.325 536.867 293.325 545C293.325 553 291.725 559.933 288.525 565.8C285.458 571.667 281.192 576.133 275.725 579.2C270.392 582.267 264.258 583.8 257.325 583.8ZM257.525 564.8C260.858 564.8 263.592 563.267 265.725 560.2C267.992 557.133 269.125 552.067 269.125 545C269.125 537.933 267.992 532.867 265.725 529.8C263.592 526.733 260.858 525.2 257.525 525.2C254.192 525.2 251.325 526.733 248.925 529.8C246.658 532.867 245.525 537.933 245.525 545C245.525 552.067 246.658 557.133 248.925 560.2C251.325 563.267 254.192 564.8 257.525 564.8ZM356.125 649.8C349.192 649.8 342.992 648.267 337.525 645.2C332.192 642.133 327.992 637.733 324.925 632C321.858 626.133 320.325 619.133 320.325 611C320.325 602.867 321.858 595.933 324.925 590.2C327.992 584.467 332.192 580.067 337.525 577C342.992 573.8 349.192 572.2 356.125 572.2C363.058 572.2 369.192 573.8 374.525 577C379.992 580.067 384.258 584.467 387.325 590.2C390.525 595.933 392.125 602.867 392.125 611C392.125 619.133 390.525 626.133 387.325 632C384.258 637.733 379.992 642.133 374.525 645.2C369.192 648.267 363.058 649.8 356.125 649.8ZM356.125 630.8C359.458 630.8 362.258 629.267 364.525 626.2C366.792 623.133 367.925 618.067 367.925 611C367.925 603.933 366.792 598.867 364.525 595.8C362.258 592.733 359.458 591.2 356.125 591.2C352.925 591.2 350.125 592.733 347.725 595.8C345.458 598.867 344.325 603.933 344.325 611C344.325 618.067 345.458 623.133 347.725 626.2C350.125 629.267 352.925 630.8 356.125 630.8ZM480.417 650.8C469.351 650.8 459.084 649.067 449.617 645.6C440.284 642 432.151 636.933 425.217 630.4C418.417 623.867 413.084 616.2 409.217 607.4C405.351 598.467 403.417 588.667 403.417 578C403.417 567.333 405.351 557.6 409.217 548.8C413.084 539.867 418.417 532.133 425.217 525.6C432.151 519.067 440.284 514.067 449.617 510.6C459.084 507 469.351 505.2 480.417 505.2C493.351 505.2 504.884 507.467 515.017 512C525.284 516.533 533.817 523.067 540.617 531.6L515.417 554.4C510.884 549.067 505.884 545 500.417 542.2C495.084 539.4 489.084 538 482.417 538C476.684 538 471.417 538.933 466.617 540.8C461.817 542.667 457.684 545.4 454.217 549C450.884 552.467 448.217 556.667 446.217 561.6C444.351 566.533 443.417 572 443.417 578C443.417 584 444.351 589.467 446.217 594.4C448.217 599.333 450.884 603.6 454.217 607.2C457.684 610.667 461.817 613.333 466.617 615.2C471.417 617.067 476.684 618 482.417 618C489.084 618 495.084 616.6 500.417 613.8C505.884 611 510.884 606.933 515.417 601.6L540.617 624.4C533.817 632.8 525.284 639.333 515.017 644C504.884 648.533 493.351 650.8 480.417 650.8ZM607.358 649.8C595.491 649.8 584.958 647.4 575.758 642.6C566.558 637.8 559.291 631.2 553.958 622.8C548.758 614.267 546.158 604.533 546.158 593.6C546.158 582.667 548.758 573 553.958 564.6C559.291 556.2 566.558 549.667 575.758 545C584.958 540.2 595.491 537.8 607.358 537.8C619.224 537.8 629.758 540.2 638.958 545C648.291 549.667 655.558 556.2 660.758 564.6C665.958 573 668.558 582.667 668.558 593.6C668.558 604.533 665.958 614.267 660.758 622.8C655.558 631.2 648.291 637.8 638.958 642.6C629.758 647.4 619.224 649.8 607.358 649.8ZM607.358 619.6C611.758 619.6 615.624 618.6 618.958 616.6C622.424 614.6 625.158 611.667 627.158 607.8C629.158 603.8 630.158 599.067 630.158 593.6C630.158 588.133 629.158 583.533 627.158 579.8C625.158 575.933 622.424 573 618.958 571C615.624 569 611.758 568 607.358 568C603.091 568 599.224 569 595.758 571C592.424 573 589.691 575.933 587.558 579.8C585.558 583.533 584.558 588.133 584.558 593.6C584.558 599.067 585.558 603.8 587.558 607.8C589.691 611.667 592.424 614.6 595.758 616.6C599.224 618.6 603.091 619.6 607.358 619.6ZM733.361 649.8C723.494 649.8 714.494 647.533 706.361 643C698.361 638.333 691.961 631.867 687.161 623.6C682.361 615.2 679.961 605.2 679.961 593.6C679.961 582.133 682.361 572.267 687.161 564C691.961 555.6 698.361 549.133 706.361 544.6C714.494 540.067 723.494 537.8 733.361 537.8C742.694 537.8 750.561 539.8 756.961 543.8C763.494 547.8 768.428 553.933 771.761 562.2C775.094 570.467 776.761 580.933 776.761 593.6C776.761 606.533 775.161 617.133 771.961 625.4C768.761 633.667 763.961 639.8 757.561 643.8C751.161 647.8 743.094 649.8 733.361 649.8ZM741.361 619.6C745.628 619.6 749.428 618.6 752.761 616.6C756.228 614.6 758.961 611.667 760.961 607.8C762.961 603.8 763.961 599.067 763.961 593.6C763.961 588.133 762.961 583.533 760.961 579.8C758.961 575.933 756.228 573 752.761 571C749.428 569 745.628 568 741.361 568C736.961 568 733.028 569 729.561 571C726.228 573 723.561 575.933 721.561 579.8C719.561 583.533 718.561 588.133 718.561 593.6C718.561 599.067 719.561 603.8 721.561 607.8C723.561 611.667 726.228 614.6 729.561 616.6C733.028 618.6 736.961 619.6 741.361 619.6ZM765.161 648V629.4L765.361 593.6L763.361 557.8V499.6H801.361V648H765.161ZM882.609 649.8C869.809 649.8 858.609 647.4 849.009 642.6C839.543 637.667 832.143 631 826.809 622.6C821.609 614.067 819.009 604.4 819.009 593.6C819.009 582.8 821.543 573.2 826.609 564.8C831.809 556.267 838.943 549.667 848.009 545C857.076 540.2 867.276 537.8 878.609 537.8C889.276 537.8 899.009 540 907.809 544.4C916.609 548.667 923.609 555 928.809 563.4C934.009 571.8 936.609 582 936.609 594C936.609 595.333 936.543 596.867 936.409 598.6C936.276 600.333 936.143 601.933 936.009 603.4H850.209V583.4H915.809L901.409 589C901.543 584.067 900.609 579.8 898.609 576.2C896.743 572.6 894.076 569.8 890.609 567.8C887.276 565.8 883.343 564.8 878.809 564.8C874.276 564.8 870.276 565.8 866.809 567.8C863.476 569.8 860.876 572.667 859.009 576.4C857.143 580 856.209 584.267 856.209 589.2V595C856.209 600.333 857.276 604.933 859.409 608.8C861.676 612.667 864.876 615.667 869.009 617.8C873.143 619.8 878.076 620.8 883.809 620.8C889.143 620.8 893.676 620.067 897.409 618.6C901.276 617 905.076 614.6 908.809 611.4L928.809 632.2C923.609 637.933 917.209 642.333 909.609 645.4C902.009 648.333 893.009 649.8 882.609 649.8Z" fill="#FFBF1A"/>
<path d="M120.588 760.6C92.5875 760.6 71.5208 753.8 57.3875 740.2C43.2542 726.6 36.1875 707.4 36.1875 682.6V620.6C36.1875 614.467 34.5875 609.933 31.3875 607C28.1875 604.067 24.0542 602.6 18.9875 602.6H5.3875V544.2H18.9875C24.0542 544.2 28.1875 542.733 31.3875 539.8C34.5875 536.6 36.1875 532.067 36.1875 526.2V464.2C36.1875 439.4 43.2542 420.2 57.3875 406.6C71.5208 393 92.5875 386.2 120.588 386.2H146.588V444.2H140.988C131.654 444.2 124.454 446.733 119.388 451.8C114.588 456.6 112.188 463.667 112.188 473V524.2C112.188 537.533 110.321 547.933 106.588 555.4C102.854 562.6 96.9875 567.8 88.9875 571C81.2542 574.2 71.1208 576.333 58.5875 577.4V569.4C71.1208 570.467 81.2542 572.6 88.9875 575.8C96.9875 579 102.854 584.333 106.588 591.8C110.321 599 112.188 609.267 112.188 622.6V673.8C112.188 683.133 114.588 690.2 119.388 695C124.454 700.067 131.654 702.6 140.988 702.6H146.588V760.6H120.588Z" fill="#FFBF1A"/>
<path d="M959.388 761.6H932.988V703.6H938.988C948.321 703.6 955.388 701.067 960.188 696C965.254 691.2 967.788 684.133 967.788 674.8V623.6C967.788 610.267 969.654 600 973.388 592.8C977.121 585.333 982.854 580 990.588 576.8C998.588 573.6 1008.85 571.467 1021.39 570.4V578.4C1008.85 577.333 998.588 575.2 990.588 572C982.854 568.8 977.121 563.6 973.388 556.4C969.654 548.933 967.788 538.533 967.788 525.2V474C967.788 464.667 965.254 457.6 960.188 452.8C955.388 447.733 948.321 445.2 938.988 445.2H932.988V387.2H959.388C987.388 387.2 1008.45 394 1022.59 407.6C1036.72 421.2 1043.79 440.4 1043.79 465.2V527.2C1043.79 533.067 1045.39 537.6 1048.59 540.8C1051.79 543.733 1055.92 545.2 1060.99 545.2H1074.19V603.6H1060.99C1055.92 603.6 1051.79 605.067 1048.59 608C1045.39 610.933 1043.79 615.467 1043.79 621.6V683.6C1043.79 708.4 1036.72 727.6 1022.59 741.2C1008.45 754.8 987.388 761.6 959.388 761.6Z" fill="#FFBF1A"/>
</g>
<defs>
<clipPath id="clip0_6_11">
<rect width="1080" height="1080" rx="540" fill="white"/>
</clipPath>
</defs>
</svg>
